<?xml version="1.0" encoding="UTF-8"?>
<!DOCTYPE svg PUBLIC "-//W3C//DTD SVG 1.1//EN" "http://www.w3.org/Graphics/SVG/1.1/DTD/svg11.dtd">
<!-- Creator: CorelDRAW -->
<svg xmlns="http://www.w3.org/2000/svg" xml:space="preserve" width="93.3517mm" height="116.071mm" version="1.1" style="shape-rendering:geometricPrecision; text-rendering:geometricPrecision; image-rendering:optimizeQuality; fill-rule:evenodd; clip-rule:evenodd"
viewBox="0 0 31545.16 39222.34"
 xmlns:xlink="http://www.w3.org/1999/xlink"
 xmlns:xodm="http://www.corel.com/coreldraw/odm/2003">
 <defs>
    <clipPath id="id0">
     <path d="M14662.47 0l16882.69 0 0 21279.77 -16882.69 0 0 -21279.77z"/>
    </clipPath>
   <clipPath id="id1">
    <rect x="15893.64" y="1292.57" width="12986.71" height="17383.79"/>
   </clipPath>
   <clipPath id="id2">
    <path d="M15893.64 18676.35l12986.71 0 0 -17383.79 -12986.71 0 0 17383.79z"/>
   </clipPath>
   <clipPath id="id3">
    <rect x="15893.64" y="1292.57" width="12986.71" height="17383.79"/>
   </clipPath>
    <clipPath id="id4">
     <path d="M-0 8239.17l19602.96 971.99 0 21898.09 -19602.96 -971.99 0 -21898.09z"/>
    </clipPath>
   <clipPath id="id5">
    <rect x="2261.88" y="10517.78" width="14443.06" height="17565.18"/>
   </clipPath>
   <clipPath id="id6">
    <path d="M2261.88 28082.96l14443.06 0 0 -17565.18 -14443.06 0 0 17565.18z"/>
   </clipPath>
   <clipPath id="id7">
    <rect x="2261.88" y="10517.78" width="14443.06" height="17565.18"/>
   </clipPath>
    <clipPath id="id8">
     <path d="M12805.68 14038.2l17494.49 0 0 25184.14 -17494.49 0 0 -25184.14z"/>
    </clipPath>
   <clipPath id="id9">
    <rect x="14680.99" y="15634.29" width="13457.32" height="21146.97"/>
   </clipPath>
   <clipPath id="id10">
    <path d="M14680.99 36781.26l13457.32 0 0 -21146.97 -13457.32 0 0 21146.97z"/>
   </clipPath>
   <clipPath id="id11">
    <rect x="14680.99" y="15634.29" width="13457.32" height="21146.97"/>
   </clipPath>
 </defs>
 <g id="Capa_x0020_1">
  <metadata id="CorelCorpID_0Corel-Layer"/>
  <g id="_2289340663088">
   <g style="clip-path:url(#id0)">
    <image x="14662.47" y="0" width="16882.69" height="21279.77" xlink:href="dumis nft_Images\dumis nft_ImgID1.png"/>
   </g>
  </g>
  <g style="clip-path:url(#id1)">
  </g>
  <g style="clip-path:url(#id2)">
   <image x="15893.64" y="1292.57" width="12986.71" height="17383.79" xlink:href="dumis nft_Images\dumis nft_ImgID2.png"/>
  </g>
  <g style="clip-path:url(#id3)">
  </g>
  <g id="_2289340662224">
   <g style="clip-path:url(#id4)">
    <image x="-0" y="8239.17" width="19602.96" height="22870.08" xlink:href="dumis nft_Images\dumis nft_ImgID3.png"/>
   </g>
  </g>
  <g style="clip-path:url(#id5)">
  </g>
  <g style="clip-path:url(#id6)">
   <image x="2261.88" y="10517.78" width="14443.06" height="17565.18" xlink:href="dumis nft_Images\dumis nft_ImgID4.png"/>
  </g>
  <g style="clip-path:url(#id7)">
  </g>
  <g id="_2289340664096">
   <g style="clip-path:url(#id8)">
    <image x="12805.68" y="14038.2" width="17494.49" height="25184.14" xlink:href="dumis nft_Images\dumis nft_ImgID5.png"/>
   </g>
  </g>
  <g style="clip-path:url(#id9)">
  </g>
  <g style="clip-path:url(#id10)">
   <image x="14680.99" y="15634.25" width="13457.32" height="21147" xlink:href="dumis nft_Images\dumis nft_ImgID6.png"/>
  </g>
  <g style="clip-path:url(#id11)">
  </g>
 </g>
</svg>
